<?xml version="1.0" encoding="utf-8"?><svg xmlns="http://www.w3.org/2000/svg" xmlns:xlink="http://www.w3.org/1999/xlink"><symbol viewBox="0 0 23.273 11.273" id="arrow-right-icon" xmlns="http://www.w3.org/2000/svg"><g data-name="Group 44"><path data-name="Path 27" d="M23.006 4.993L18.256.266a.91.91 0 00-1.283 1.289l3.189 3.174H.909a.909.909 0 000 1.818h19.253l-3.189 3.174a.91.91 0 001.283 1.289l4.75-4.727a.91.91 0 000-1.29z"/></g></symbol><symbol viewBox="0 0 47.652 47.652" id="facebook-icon" xmlns="http://www.w3.org/2000/svg"><path data-name="Path 31" d="M23.826 0a23.826 23.826 0 1023.826 23.826A23.853 23.853 0 0023.826 0zm0 44.926a21.1 21.1 0 1121.1-21.1 21.124 21.124 0 01-21.1 21.1z"/><path data-name="Path 32" d="M29.345 10.897h-3.231a4.8 4.8 0 00-4.8 4.8v3.635h-3.01a1.363 1.363 0 000 2.726h3.01v12.62a1.363 1.363 0 102.726 0V22.053h4.657a1.363 1.363 0 100-2.726H24.04v-3.634a2.072 2.072 0 012.07-2.07h3.231a1.363 1.363 0 000-2.726z"/></symbol><symbol viewBox="0 0 12.138 13.281" id="play-icon" xmlns="http://www.w3.org/2000/svg"><path data-name="Polygon 9" d="M8.931 4.886a2 2 0 010 3.509L2.96 11.662A2 2 0 010 9.907V3.374a2 2 0 012.96-1.755z"/></symbol></svg>