<?xml version="1.0" encoding="utf-8"?><svg xmlns="http://www.w3.org/2000/svg" xmlns:xlink="http://www.w3.org/1999/xlink"><symbol viewBox="0 0 47.652 47.652" id="facebook-icon" xmlns="http://www.w3.org/2000/svg"><path data-name="Path 31" d="M23.826 0a23.826 23.826 0 1023.826 23.826A23.853 23.853 0 0023.826 0zm0 44.926a21.1 21.1 0 1121.1-21.1 21.124 21.124 0 01-21.1 21.1z"/><path data-name="Path 32" d="M29.345 10.897h-3.231a4.8 4.8 0 00-4.8 4.8v3.635h-3.01a1.363 1.363 0 000 2.726h3.01v12.62a1.363 1.363 0 102.726 0V22.053h4.657a1.363 1.363 0 100-2.726H24.04v-3.634a2.072 2.072 0 012.07-2.07h3.231a1.363 1.363 0 000-2.726z"/></symbol></svg>